<svg width="264" height="34" viewBox="0 0 264 34" fill="none" xmlns="http://www.w3.org/2000/svg">
<g clip-path="url(#clip0_782_820)">
<path d="M5.13057 1.73646C4.64195 1.28497 3.8392 1.11133 2.89685 1.11133H0V11.8774H2.89685C3.87411 11.8774 4.64195 11.7038 5.13057 11.2176C5.6541 10.7313 5.93332 10.0368 5.93332 9.34218V3.57711C5.93332 2.88252 5.6541 2.18794 5.13057 1.73646ZM1.74509 2.84779H2.89685C3.14117 2.84779 3.42038 2.84779 3.62979 3.02144C3.7694 3.16036 3.87411 3.36873 3.8392 3.57711V9.34218C3.8392 9.55055 3.7694 9.75893 3.62979 9.93257C3.42038 10.1062 3.17607 10.1757 2.89685 10.1409H1.74509V2.84779Z" fill="black"/>
<path d="M13.6817 7.29315C13.9609 6.87639 13.9609 6.35545 13.9609 5.76506V3.57711C13.9609 2.77834 13.8213 2.22267 13.3326 1.73646C12.844 1.25025 12.2158 1.11133 11.2734 1.11133H8.72559V11.8774H10.4707V8.40448H10.9942L12.8091 11.8774H15.0428L12.9487 7.953C13.2279 7.77936 13.4722 7.57098 13.6467 7.25842L13.6817 7.29315ZM10.4707 2.84779H11.2734C11.5177 2.84779 11.797 2.84779 12.0064 3.02144C12.146 3.16036 12.2507 3.36873 12.2158 3.57711V5.76506C12.2158 6.00816 12.146 6.21654 12.0064 6.42491C11.797 6.59856 11.5526 6.70275 11.2734 6.70275H10.4707V2.88252V2.84779Z" fill="black"/>
<path d="M18.8474 9.44641H16.4043V11.8775H18.8474V9.44641Z" fill="black"/>
<path d="M22.8262 33.236V0.764038H26.1767L37.2406 25.7691V0.764038H40.7657V33.2707H37.4151L26.3513 8.26557V33.2707H22.8262V33.236Z" fill="black"/>
<path d="M61.846 33.236L60.5547 30.0409C59.8915 31.1869 58.9492 32.1593 57.8323 32.8887C56.6806 33.618 55.3543 34 54.028 34C52.248 34 50.8171 33.6874 49.77 33.0623C48.7579 32.5066 47.9551 31.6037 47.5014 30.5618C47.0477 29.4505 46.8033 28.2349 46.8383 27.0194V22.0184C46.8383 20.8029 47.0477 19.5526 47.5014 18.4413C47.9551 17.3647 48.7579 16.4964 49.8049 15.9408C50.8869 15.3156 52.2829 15.0031 54.0629 15.0031H59.8915V6.80695C59.9265 5.76507 59.5425 4.75792 58.7747 4.0286C58.0068 3.33401 56.89 2.98672 55.3194 2.98672C53.7488 2.98672 52.6669 3.33401 51.9688 4.0286C51.201 4.75792 50.8171 5.76507 50.852 6.80695V9.75894H47.3269V7.01532C47.3269 4.82737 47.99 3.09091 49.2814 1.87538C50.5378 0.625128 52.5622 0 55.2845 0C57.9719 0 59.9963 0.625128 61.3574 1.84065C62.7186 3.09091 63.3817 4.79265 63.3817 6.98059V33.236H61.881H61.846ZM59.8566 17.9898H54.028C52.5273 17.9898 51.5151 18.3718 51.0265 19.1359C50.5029 20.0041 50.2586 20.9765 50.2935 21.9837V26.9847C50.2935 27.9918 50.5029 28.9642 51.0265 29.8325C51.5151 30.5965 52.4924 30.9785 54.028 30.9785C55.0053 30.9785 55.9825 30.7007 56.8202 30.1798C57.6578 29.6588 58.3559 29.0337 58.9492 28.2697C59.4727 27.6793 59.7868 26.9152 59.8566 26.1512V17.9898Z" fill="black"/>
<path d="M86.2074 26.9847C86.2074 29.1379 85.5093 30.8744 84.1133 32.1246C82.7172 33.3749 80.5882 34 77.6913 34C74.7945 34 72.6655 33.3749 71.2345 32.1246C69.8035 30.8744 69.1055 29.1726 69.1055 26.9847V6.98059C69.1055 4.82737 69.8035 3.09091 71.1996 1.84065C72.6306 0.625128 74.7596 0 77.6215 0C80.5184 0 82.6474 0.625128 84.0784 1.87538C85.5093 3.12564 86.2074 4.82737 86.2074 6.98059V26.9847ZM82.7172 6.98059C82.787 5.86925 82.2984 4.75792 81.4607 4.0286C80.6231 3.33401 79.3666 2.98672 77.6564 2.98672C75.9462 2.98672 74.6898 3.33401 73.9219 4.0286C73.0843 4.72319 72.7004 5.69561 72.7004 6.98059V26.9847C72.6655 28.096 73.1192 29.1726 73.9568 29.9019C74.7945 30.6313 76.0509 30.9785 77.7611 30.9785C79.4713 30.9785 80.7278 30.6313 81.4956 29.9019C82.3333 29.1726 82.787 28.096 82.7172 26.9847V6.98059Z" fill="black"/>
<path d="M92.4902 33.236V0.764045H93.991L95.2475 3.95914C95.9106 2.81308 96.853 1.84065 97.9698 1.11134C99.0867 0.382023 100.413 0 101.739 0C103.554 0 104.95 0.347293 105.997 1.00715C107.009 1.63228 107.777 2.56997 108.196 3.64658C108.894 2.6047 109.802 1.70174 110.884 1.04188C112 0.347293 113.257 0 114.548 0C116.328 0 117.724 0.312564 118.736 0.937692C119.714 1.52809 120.482 2.39632 120.935 3.4382C121.389 4.58427 121.633 5.7998 121.598 7.01532V33.2707H118.108V6.98059C118.143 5.97344 117.899 5.00102 117.41 4.13279C116.956 3.36874 115.979 2.98672 114.478 2.98672C113.501 2.98672 112.524 3.26456 111.721 3.82023C110.884 4.34117 110.185 5.00102 109.627 5.83453C109.138 6.45965 108.859 7.2237 108.824 8.02247V33.2707H105.299V6.98059C105.334 5.97344 105.09 5.00102 104.601 4.13279C104.147 3.36874 103.17 2.98672 101.669 2.98672C100.692 2.98672 99.7498 3.26456 98.9122 3.7855C98.0745 4.27171 97.3765 4.93156 96.8181 5.69561C96.3294 6.32074 96.0502 7.05005 96.0153 7.8141V33.2012H92.4902V33.236Z" fill="black"/>
<path d="M128.159 33.236V0.764038H131.684V33.2707H128.159V33.236Z" fill="black"/>
<path d="M146.378 33.236V0.764038H160.199V3.75076H149.903V15.2462H158.175V18.2329H149.903V33.236H146.378ZM167.214 33.236V0.764038H170.739V33.2707H167.214V33.236Z" fill="black"/>
<path d="M191.157 20.2125C192.03 21.0807 192.728 22.1573 193.182 23.3034C193.566 24.4842 193.74 25.7344 193.705 26.9847C193.705 29.1379 193.042 30.8744 191.681 32.1246C190.32 33.3749 188.191 34 185.189 34C182.257 34 180.093 33.3749 178.732 32.1246C177.371 30.8744 176.708 29.1726 176.708 26.9847V22.7477H180.233V27.1931C180.198 28.2349 180.652 29.2768 181.455 29.9367C182.257 30.6313 183.514 30.9785 185.189 30.9785C186.864 30.9785 188.121 30.6313 188.924 29.9367C189.726 29.2421 190.18 28.2349 190.145 27.1931C190.145 26.3248 190.041 25.4219 189.831 24.5884C189.482 23.7201 188.959 22.9561 188.261 22.3309L179.43 13.7181C178.523 12.8498 177.79 11.7732 177.301 10.6272C176.883 9.44637 176.708 8.23085 176.708 6.98059C176.708 4.82737 177.406 3.09091 178.767 1.84065C180.198 0.625128 182.292 0 185.154 0C187.981 0 190.006 0.625128 191.297 1.87538C192.588 3.12564 193.217 4.82737 193.217 7.01532V11.2523H189.692V6.80695C189.726 5.76507 189.308 4.72319 188.54 4.0286C187.772 3.33401 186.585 2.98672 184.98 2.98672C183.374 2.98672 182.188 3.33401 181.42 4.0286C180.652 4.72319 180.198 5.76507 180.268 6.80695C180.268 7.67518 180.373 8.57814 180.582 9.41164C180.896 10.2799 181.455 11.0092 182.153 11.5996L191.157 20.2125Z" fill="black"/>
<path d="M199.743 33.236V0.764038H203.268V15.2462H213.18V0.764038H216.705V33.2707H213.18V18.2676H203.303V33.2707H199.778L199.743 33.236Z" fill="black"/>
<path d="M236.005 24.2411H239.531V26.9847C239.531 29.1379 238.867 30.8744 237.506 32.1246C236.18 33.3749 234.086 34 231.294 34C228.467 34 226.373 33.3749 225.011 32.1246C223.65 30.8744 222.952 29.1726 222.952 26.9847V7.01532C222.952 4.8621 223.615 3.12564 224.976 1.87538C226.303 0.625128 228.397 0 231.189 0C234.016 0 236.11 0.625128 237.471 1.87538C238.833 3.12564 239.531 4.82737 239.531 7.01532V18.0245H226.477V27.0194C226.407 28.1307 226.861 29.1726 227.664 29.9367C228.467 30.666 229.653 31.0133 231.294 31.0133C232.934 31.0133 234.121 30.666 234.854 29.9367C235.656 29.1726 236.075 28.096 236.005 27.0194V24.2758V24.2411ZM226.477 15.0031H236.005V7.01532C236.005 5.76507 235.622 4.75792 234.819 4.06333C234.016 3.36874 232.829 3.02145 231.189 3.02145C229.584 3.02145 228.397 3.36874 227.629 4.06333C226.861 4.75792 226.477 5.73034 226.477 7.01532V15.0031Z" fill="black"/>
<path d="M245.813 33.236V0.764038H253.387C256.074 0.764038 258.064 1.38917 259.39 2.63942C260.716 3.88968 261.379 5.59141 261.379 7.77936V14.76C261.414 16.2186 261.03 17.6425 260.263 18.8927C259.46 20.0388 258.308 20.907 256.947 21.2543L263.125 33.236H259.25L253.387 21.7405H249.303V33.236H245.778H245.813ZM257.854 7.74463C257.924 6.66802 257.505 5.59141 256.737 4.82737C255.97 4.09805 254.888 3.75076 253.387 3.75076H249.303V18.7538H253.387C254.888 18.7538 256.005 18.4065 256.737 17.6772C257.505 16.9132 257.889 15.8366 257.854 14.76V7.74463Z" fill="black"/>
</g>
<defs>
<clipPath id="clip0_782_820">
<rect width="263.16" height="34" fill="white"/>
</clipPath>
</defs>
</svg>
