<svg xmlns="http://www.w3.org/2000/svg" viewBox="0 0 760 760"><defs><style>.a{fill:#fff;}</style></defs><title>icon-pound</title><circle cx="380" cy="380" r="380"/><path class="a" d="M324.92,269.12a64.44,64.44,0,0,1,84.8-61.1l81.2,27.1a32,32,0,1,0,20.3-60.7l-81.3-27.1a128.37,128.37,0,0,0-169,121.8v63.6h-16a32,32,0,1,0,0,64h16v44.5a95.54,95.54,0,0,1-13.7,49.4l-29.7,49.6a32.06,32.06,0,0,0,27.4,48.5h256a32,32,0,0,0,0-64H301.42l0.7-1.1a160.56,160.56,0,0,0,22.8-82.4v-44.5h112a32,32,0,0,0,0-64h-112v-63.6Z"/></svg>