<svg width="14" height="14" viewBox="0 0 14 14" fill="none" xmlns="http://www.w3.org/2000/svg">
<path d="M5.00016 1.8H3.56016C2.66407 1.8 2.2157 1.8 1.87344 1.97439C1.57238 2.12778 1.32778 2.37238 1.17439 2.67344C1 3.0157 1 3.46407 1 4.36016V10.4402C1 11.3362 1 11.7841 1.17439 12.1263C1.32778 12.4274 1.57238 12.6724 1.87344 12.8258C2.21536 13 2.66319 13 3.55753 13H9.64248C10.5368 13 10.984 13 11.3259 12.8258C11.627 12.6724 11.8724 12.4271 12.0258 12.1261C12.2 11.7842 12.2 11.3368 12.2 10.4425V9M13 5V1M13 1H9M13 1L7.4 6.6" stroke="#387569" stroke-width="2" stroke-linecap="round" stroke-linejoin="round"/>
</svg>
