<svg xmlns="http://www.w3.org/2000/svg" viewBox="0 0 55.92 16"><defs><style>.a{fill:#fff;}</style></defs><title>pro</title><path d="M43.42,0.65a2.32,2.32,0,0,0-.78.13l-9.2,3.32a0.79,0.79,0,0,0,0,1.48l1.9,0.69a5.4,5.4,0,0,0-.84,2.9V10.1a6.22,6.22,0,0,1-.73,2.65A8.7,8.7,0,0,1,33,14a0.53,0.53,0,0,0,.29.83l2.1,0.52a0.52,0.52,0,0,0,.41-0.07,0.51,0.51,0,0,0,.23-0.34A8.46,8.46,0,0,0,36,11.36,7.26,7.26,0,0,0,35.54,10V9.18a4.36,4.36,0,0,1,.92-2.67,4,4,0,0,1,1.61-1.17l5.15-2a0.52,0.52,0,1,1,.38,1l-5.15,2A3,3,0,0,0,37.4,7L42.64,8.9a2.31,2.31,0,0,0,1.56,0L53.4,5.59a0.79,0.79,0,0,0,0-1.48l-9.2-3.32A2.32,2.32,0,0,0,43.42.65ZM37.12,13c0,1.16,2.82,2.36,6.3,2.36s6.3-1.2,6.3-2.36l-0.5-4.77L44.55,9.9a3.35,3.35,0,0,1-2.26,0L37.62,8.22Z" transform="translate(2)"/><rect width="28.92" height="16" rx="4" ry="4"/><path class="a" d="M2.54,11.44v-7a0.47,0.47,0,0,1,.18-0.36A0.67,0.67,0,0,1,3.18,4H5.45a2.78,2.78,0,0,1,1.88.61A2.39,2.39,0,0,1,8,6.48V6.54a2.37,2.37,0,0,1-.74,1.92,3,3,0,0,1-2,.62H4.25v2.37a0.43,0.43,0,0,1-.25.39,1.24,1.24,0,0,1-.6.14,1.24,1.24,0,0,1-.6-0.14A0.43,0.43,0,0,1,2.54,11.44ZM4.25,7.76H5.34a0.92,0.92,0,0,0,1-1.1V6.55a0.92,0.92,0,0,0-1-1.1H4.25V7.76Z" transform="translate(2)"/><path class="a" d="M9.6,11.44v-7A0.51,0.51,0,0,1,10.12,4h2.27q2.69,0,2.69,2.34a2.13,2.13,0,0,1-1.33,2.22L15.1,11a0.33,0.33,0,0,1,.06.2,0.8,0.8,0,0,1-.35.6,1.13,1.13,0,0,1-.73.29,0.57,0.57,0,0,1-.55-0.32L12,8.8H11.31v2.64a0.43,0.43,0,0,1-.25.39,1.4,1.4,0,0,1-1.21,0A0.43,0.43,0,0,1,9.6,11.44Zm1.71-4h1.08a1,1,0,0,0,.73-0.24,1,1,0,0,0,.25-0.78,1,1,0,0,0-.25-0.78,1,1,0,0,0-.73-0.24H11.31v2Z" transform="translate(2)"/><path class="a" d="M16.73,9.45V6.55a2.44,2.44,0,0,1,.73-2A2.91,2.91,0,0,1,19.41,4a2.93,2.93,0,0,1,2,.62,2.44,2.44,0,0,1,.73,2v2.9a2.44,2.44,0,0,1-.73,2,2.93,2.93,0,0,1-2,.62,2.91,2.91,0,0,1-1.95-.62A2.44,2.44,0,0,1,16.73,9.45Zm1.71,0a1,1,0,1,0,2,0V6.55a1,1,0,1,0-2,0v2.9Z" transform="translate(2)"/></svg>