<svg xmlns="http://www.w3.org/2000/svg" viewBox="0 0 511.97 512.07"><defs><style>.a{fill:#fff;}</style></defs><title>icon-search-white-close</title><path class="a" d="M502.6,457.4L376,330.7A207.49,207.49,0,0,0,416,208C416,93.1,322.9,0,208,0S0,93.1,0,208,93.1,416,208,416a206.81,206.81,0,0,0,122.7-40L457.3,502.7A32,32,0,0,0,502.6,457.4ZM289.33,253.69a22.74,22.74,0,0,1,0,32.07l-2.87,2.87a22.74,22.74,0,0,1-32.07,0l-45.69-45.69L163,288.63a22.74,22.74,0,0,1-32.07,0l-2.87-2.87a22.74,22.74,0,0,1,0-32.07L173.77,208l-45.69-45.69a22.74,22.74,0,0,1,0-32.07l2.87-2.87a22.74,22.74,0,0,1,32.07,0l45.69,45.69,45.69-45.69a22.74,22.74,0,0,1,32.07,0l2.87,2.87a22.74,22.74,0,0,1,0,32.07L243.64,208Z" transform="translate(0 0)"/></svg>