<svg xmlns="http://www.w3.org/2000/svg" viewBox="0 0 512 91.79"><defs><style>.a{fill:#f05537;}</style></defs><title>logo-eventbrite</title><path class="a" d="M24.21,31.24C41,27.4,57.84,37.73,61.68,54.2a35.53,35.53,0,0,1,.73,5.38l0,0.68-9.56,2.13-5,1.11L17.3,70.42a17.18,17.18,0,0,0,17.75,6.74,16.88,16.88,0,0,0,10-6.6l0.22-.32L59.8,73.66A31.16,31.16,0,0,1,38.29,91,31.2,31.2,0,0,1,.82,68C-3.1,51.47,7.4,35.08,24.21,31.24h0Zm449.55,0.08c16.81-3.84,33.63,6.49,37.47,23a35.29,35.29,0,0,1,.73,5.38l0,0.68-9.56,2.13-5,1.11L466.85,70.5a17.17,17.17,0,0,0,17.75,6.74,16.88,16.88,0,0,0,10-6.6l0.22-.32,14.51,3.33A31.17,31.17,0,0,1,487.85,91C471,94.83,454.22,84.5,450.38,68S456.95,35.17,473.76,31.32Zm-332.11,0a31.27,31.27,0,0,1,37.47,23,35.29,35.29,0,0,1,.73,5.38l0,0.68-9.56,2.13-4.95,1.11L134.74,70.5a17.11,17.11,0,0,0,17.75,6.74,16.88,16.88,0,0,0,10.24-6.91L173,72.65c2.39,0.55,4.25,1,4.25,1A31.17,31.17,0,0,1,155.74,91c-16.81,3.84-33.63-6.49-37.47-23S124.84,35.17,141.66,31.32ZM300.92,0V35.85a25.71,25.71,0,0,1,16.64-5.46c17.58,0,31.67,13.57,31.67,30.56s-14.08,30.73-31.67,30.73a25.86,25.86,0,0,1-16.64-5.46V90H285.47V3.5Zm68.54,31.41v5.21c4.68-3.34,9.2-4.56,16.83-5l0.49,0v15c-15,.51-17.28,5.53-17.33,14.41V90H354V31.41h15.45ZM268.57,7.34V31.41h12V46h-12V90h-16V46h-9.47V31.41h9.47V10.93Zm-53.26,23c13.06,0,24.41,7.51,24.41,25.86V90H224.19V58.72c0-11.11-5.89-13.72-11.9-13.82h-0.78c-6,.1-11.9,2.54-11.9,13.57V90H184.16V31.41h15.45v4.35l1.15-.82A23,23,0,0,1,215.31,30.3ZM74.57,31.41L89.76,71.18l15.36-39.77h16.82L97.87,90h-16L57.75,31.41H74.57Zm333,0V90H392.16V31.41h15.45Zm31.15-20.49V31.41h12V46.26h-12V90h-16V46.35h-9.47V31.41h9.47V10.93h16ZM317.48,44.47c-9.13,0-16.56,7.26-16.9,15.71v1.45a16.88,16.88,0,0,0,33.71-.77C334.3,52.07,326.7,44.47,317.48,44.47Zm146.64,14,30.56-6.91A17.13,17.13,0,0,0,477,44.9a16.75,16.75,0,0,0-12.83,13.26l-0.06.31,30.56-6.91ZM132,58.47l30.56-6.91A17.15,17.15,0,0,0,144.9,44.9a16.65,16.65,0,0,0-12.84,13.26l-0.05.31,30.56-6.91Zm-117.44,0,30.56-6.91A17.15,17.15,0,0,0,27.45,44.9,16.54,16.54,0,0,0,14.62,58.16l-0.05.31,30.56-6.91ZM399.93,1.37a9.34,9.34,0,0,1,9.64,9.47,9.73,9.73,0,0,1-19.46,0C390.12,5.38,394.38,1.37,399.93,1.37Z"/></svg>