<svg xmlns="http://www.w3.org/2000/svg" viewBox="0 0 140 39.45"><defs><style>.a{fill:#1d1d1b;}.a,.b{fill-rule:evenodd;}.b{fill:#f7991c;}</style></defs><title>logo-audible</title><path class="a" d="M19.72,31.94V19.16H24V31.78A3.78,3.78,0,0,0,28,35.63c3.21,0,4.26-1.87,4.26-2.94V19.16h4.24V39H34.07l-1.62-2.21a7.42,7.42,0,0,1-5.86,2.65C22.54,39.43,19.72,36.74,19.72,31.94ZM67.9,12.09H72v9a6.91,6.91,0,0,1,5.5-2.4c3.92,0,7.08,2.29,7.08,7.28v6.18c0,5-3.2,7.28-6.93,7.28a7.37,7.37,0,0,1-5.84-2.67L70.31,39H67.9V12.09Zm8.6,23.53a3.82,3.82,0,0,0,4-3.78V26.28a3.81,3.81,0,0,0-3.94-3.78c-2.79,0-4.49,1.59-4.49,3.75v5.43h0C72,34.37,73.88,35.62,76.5,35.62ZM52,12.11h4.14V39H53.77l-1.54-2.21a7.38,7.38,0,0,1-5.84,2.67c-3.73,0-6.93-2.29-6.93-7.28V26c0-5,3.16-7.28,7.08-7.28a6.91,6.91,0,0,1,5.5,2.4v-9ZM43.6,31.86a3.82,3.82,0,0,0,4,3.77c2.62,0,4.52-1.25,4.45-3.93h0V26.27c0-2.16-1.71-3.75-4.49-3.75a3.81,3.81,0,0,0-3.94,3.78v5.57ZM87.5,12.11h4.24V39H87.5V12.11ZM60,19.16h4.24V39H60V19.16Zm2.12-2.39a2.39,2.39,0,1,1,2.41-2.39A2.4,2.4,0,0,1,62.1,16.77Zm41.32,18.86a5.44,5.44,0,0,0,4.8-2.27l3.08,1.88c-1.17,2.66-4,4.21-7.88,4.21-5.21,0-8.56-2.71-8.56-7.28v-6.1c0-4.5,3.36-7.36,8.56-7.36,5,0,8.25,2.71,8.25,7.28v4.46H99.09v1.64C99.09,34.15,100.52,35.63,103.41,35.63ZM99.09,26v1.26h8.33V26c0-2.06-1.43-3.47-4.17-3.47S99.09,23.93,99.09,26ZM8.79,18.7c5.4,0,8,2.82,8,6.71V39H14.35l-1.62-2.21A8,8,0,0,1,6.6,39.45C3,39.45,0,37.5,0,33.61c0-5.5,6.42-6.38,9-6.38h3.56V25.68c0-1.94-1.2-3.17-3.78-3.17-1.8,0-3.12.16-4.51,2.34L1,22.81C2,20.34,4.68,18.7,8.79,18.7Zm3.78,13.94V30.17H10.75c-2.39.09-6.3,0.61-6.3,3,0,1.68,1.46,2.48,3.47,2.48a5.33,5.33,0,0,0,4.18-1.78A1.94,1.94,0,0,0,12.57,32.64Z"/><path class="b" d="M121.5,19.86L140,8.24v3.14L121.5,23,103,11.38V8.24Zm0-14.53a12,12,0,0,1,10,5.38h0l-2.72,1.71A11.51,11.51,0,0,0,112,10.32l-0.44.39h0A12,12,0,0,1,121.49,5.33Zm0,5.33A6.67,6.67,0,0,1,127,13.54h0l-2.63,1.65a6.21,6.21,0,0,0-5-2.76A5.73,5.73,0,0,0,116,13.51,6.67,6.67,0,0,1,121.49,10.67ZM109,6a20.92,20.92,0,0,0-2,1.89,17.26,17.26,0,0,1,29,0h0l-2.82,1.77,0-.06A16.62,16.62,0,0,0,109,6Z"/></svg>