<svg viewBox="0 0 120 34" fill="none" xmlns="http://www.w3.org/2000/svg">
<path d="M118.026 8.69508C114.216 8.69069 110.515 9.96737 107.518 12.32C104.516 9.96978 100.814 8.69352 97.0011 8.69508H95.7937V27.1312H119.238V8.69508H118.026ZM98.2048 24.715V11.1596C100.914 11.3824 103.508 12.3552 105.696 13.9689C102.9 16.8787 101.229 20.6872 100.98 24.715H98.2048ZM116.819 24.715H114.282C114.457 24.1012 114.78 23.5396 115.222 23.0794C115.664 22.6192 116.213 22.2743 116.819 22.0749V24.715ZM116.819 19.5799C115.562 19.8275 114.409 20.4511 113.514 21.368C112.619 22.285 112.023 23.4521 111.806 24.715H108.81C109.047 22.6586 109.965 20.7404 111.417 19.2651C112.869 17.7898 114.773 16.842 116.825 16.5721L116.819 19.5799ZM116.819 14.1407C114.126 14.4257 111.614 15.635 109.712 17.5629C107.81 19.4908 106.635 22.0182 106.386 24.715H103.401C103.658 21.2282 105.15 17.9475 107.61 15.4627C110.07 12.9779 113.335 11.4521 116.819 11.1596V14.1407Z" fill="#8430CD"></path>
<path d="M100.893 13.4498C100.684 13.4498 100.479 13.5118 100.305 13.628C100.131 13.7442 99.996 13.9093 99.9159 14.1025C99.8359 14.2957 99.815 14.5083 99.8558 14.7134C99.8966 14.9185 99.9973 15.1069 100.145 15.2548C100.293 15.4026 100.481 15.5033 100.686 15.5441C100.892 15.5849 101.104 15.564 101.297 15.484C101.491 15.4039 101.656 15.2684 101.772 15.0945C101.888 14.9207 101.95 14.7163 101.95 14.5071C101.95 14.2267 101.839 13.9578 101.64 13.7595C101.442 13.5612 101.173 13.4498 100.893 13.4498Z" fill="#8430CD"></path>
<path d="M22.3279 8.69507H17.2767V24.6895H22.3279V8.69507Z" fill="#13101A"></path>
<path d="M57.6069 8.69507H51.7135L49.3838 12.2258L47.0529 8.69507H41.1608L46.4371 16.6917L41.1608 24.6895H47.0529L49.3838 21.1575L51.7135 24.6895H57.6069L52.3293 16.6917L57.6069 8.69507Z" fill="#13101A"></path>
<path d="M10.5527 8.68408L8.22309 12.2161L5.89345 8.68408H0L5.27637 16.682L0 24.6786H5.89345L8.22309 21.1466L10.5527 24.6786H16.4462L11.1698 16.682L16.4462 8.68408H10.5527Z" fill="#13101A"></path>
<path d="M85.7702 9.67992C84.5886 9.03151 83.2623 8.69224 81.9144 8.69361C80.5666 8.69498 79.241 9.03695 78.0607 9.68776C76.8804 10.3386 75.8837 11.2771 75.1633 12.4162C74.4428 13.5553 74.0219 14.858 73.9396 16.2033C73.8573 17.5486 74.1164 18.8929 74.6927 20.1113C75.269 21.3297 76.1439 22.3827 77.2361 23.1725C78.3283 23.9622 79.6024 24.4632 80.94 24.6288C82.2776 24.7944 83.6354 24.6192 84.8872 24.1196V25.5319C84.8336 26.2741 84.501 26.9686 83.9562 27.4755C83.4114 27.9824 82.6948 28.2642 81.9506 28.2642C81.2065 28.2642 80.4899 27.9824 79.9451 27.4755C79.4003 26.9686 79.0676 26.2741 79.0141 25.5319H73.9642C74.0168 27.6151 74.8813 29.5954 76.3733 31.0502C77.8653 32.505 79.8667 33.3193 81.9506 33.3193C84.0345 33.3193 86.036 32.505 87.528 31.0502C89.02 29.5954 89.8845 27.6151 89.9371 25.5319V8.69514H86.4191L85.7702 9.67992ZM81.9328 19.6385C81.35 19.6385 80.7803 19.4656 80.2957 19.1419C79.8111 18.8181 79.4334 18.3578 79.2104 17.8194C78.9874 17.281 78.929 16.6885 79.0427 16.1169C79.1564 15.5453 79.4371 15.0202 79.8492 14.6081C80.2613 14.196 80.7863 13.9153 81.3579 13.8016C81.9296 13.6879 82.522 13.7463 83.0605 13.9693C83.5989 14.1924 84.0592 14.57 84.3829 15.0546C84.7067 15.5392 84.8796 16.1089 84.8796 16.6917C84.8796 17.4733 84.5691 18.2228 84.0165 18.7754C83.4639 19.328 82.7143 19.6385 81.9328 19.6385Z" fill="#13101A"></path>
<path d="M35.5777 9.67992C34.3961 9.03151 33.0697 8.69224 31.7219 8.69361C30.3741 8.69498 29.0485 9.03695 27.8682 9.68776C26.6879 10.3386 25.6912 11.2771 24.9708 12.4162C24.2503 13.5553 23.8294 14.858 23.7471 16.2033C23.6648 17.5486 23.9239 18.8929 24.5002 20.1113C25.0765 21.3297 25.9514 22.3827 27.0436 23.1725C28.1358 23.9622 29.4099 24.4632 30.7475 24.6288C32.0851 24.7944 33.4429 24.6192 34.6947 24.1196V25.5319C34.6411 26.2741 34.3085 26.9686 33.7637 27.4755C33.2188 27.9824 32.5023 28.2642 31.7581 28.2642C31.014 28.2642 30.2974 27.9824 29.7526 27.4755C29.2078 26.9686 28.8751 26.2741 28.8216 25.5319H23.7717C23.8243 27.6151 24.6888 29.5954 26.1808 31.0502C27.6728 32.505 29.6742 33.3193 31.7581 33.3193C33.842 33.3193 35.8434 32.505 37.3354 31.0502C38.8274 29.5954 39.692 27.6151 39.7445 25.5319V8.69514H36.2278L35.5777 9.67992ZM31.7403 19.6385C31.1575 19.6385 30.5878 19.4656 30.1032 19.1419C29.6186 18.8181 29.2409 18.3578 29.0179 17.8194C28.7949 17.281 28.7365 16.6885 28.8502 16.1169C28.9639 15.5453 29.2446 15.0202 29.6567 14.6081C30.0688 14.196 30.5938 13.9153 31.1654 13.8016C31.737 13.6879 32.3295 13.7463 32.868 13.9693C33.4064 14.1924 33.8666 14.57 34.1904 15.0546C34.5142 15.5392 34.687 16.1089 34.687 16.6917C34.687 17.4733 34.3766 18.2228 33.824 18.7754C33.2713 19.328 32.5218 19.6385 31.7403 19.6385Z" fill="#13101A"></path>
<path d="M68.3647 9.69129C67.1459 9.02556 65.7748 8.68855 64.3863 8.7134C62.9977 8.73826 61.6396 9.12414 60.4454 9.83307C59.2512 10.542 58.2622 11.5496 57.5755 12.7567C56.8888 13.9638 56.5282 15.3289 56.5291 16.7176C56.5299 18.1064 56.8923 19.471 57.5805 20.6772C58.2687 21.8835 59.2591 22.8898 60.4542 23.5972C61.6492 24.3046 63.0079 24.6888 64.3964 24.7119C65.785 24.735 67.1557 24.3962 68.3736 23.7289L69.0098 24.715H72.5278V16.9538H72.5214C72.5214 16.8749 72.5278 16.796 72.5278 16.7171C72.5278 16.6382 72.5278 16.5504 72.5214 16.4626H72.5278V8.70142H69.0021L68.3647 9.69129ZM64.5197 19.6231C63.9431 19.6234 63.3794 19.4526 62.8999 19.1325C62.4204 18.8123 62.0466 18.3572 61.8258 17.8246C61.6049 17.292 61.547 16.7058 61.6594 16.1403C61.7717 15.5748 62.0492 15.0553 62.4568 14.6475C62.8644 14.2397 63.3838 13.962 63.9493 13.8494C64.5148 13.7368 65.1009 13.7945 65.6336 14.0151C66.1663 14.2356 66.6217 14.6092 66.942 15.0886C67.2624 15.568 67.4333 16.1316 67.4333 16.7082C67.4333 17.4811 67.1264 18.2223 66.58 18.7689C66.0337 19.3155 65.2926 19.6228 64.5197 19.6231Z" fill="#13101A"></path>
<path d="M19.8023 6.57411C21.4297 6.57411 22.749 5.25482 22.749 3.62739C22.749 1.99996 21.4297 0.680664 19.8023 0.680664C18.1749 0.680664 16.8556 1.99996 16.8556 3.62739C16.8556 5.25482 18.1749 6.57411 19.8023 6.57411Z" fill="#13101A"></path>
</svg>