<svg xmlns="http://www.w3.org/2000/svg" viewBox="0 0 600.8 85.2"><title>logo-waterstones</title><path d="M156.8,73.9c-0.7,4-2.4,6.1-5.1,6.1a3.13,3.13,0,0,1-3.2-2c-0.5-1.4-.8-4.4-0.8-9.2V48.4c0-4.3-.5-7.5-1.4-9.6s-2.8-4-5.7-5.6-6.9-2.5-12.1-2.5c-7,0-12.2,1.4-15.6,4s-5,5.2-5,7.6,1.3,3.6,3.8,3.6c2.8,0,4.5-2.1,5.2-6.3s4.2-6.2,10.3-6.2a13.88,13.88,0,0,1,7.5,1.8,7.29,7.29,0,0,1,3.5,4.2,28.07,28.07,0,0,1,.7,7.6v2.5l-9.6,3.9a81.23,81.23,0,0,0-17.2,9.2c-4.1,3.2-6.2,6.9-6.2,11.1a9.35,9.35,0,0,0,3.7,7.8,13.6,13.6,0,0,0,8.8,3,22.68,22.68,0,0,0,9.1-2.2,70.57,70.57,0,0,0,11.3-6.6,11.44,11.44,0,0,0,3.2,6.6,9.25,9.25,0,0,0,6.6,2.2c6.5,0,9.9-3.5,10.3-10.5h-2.1M139,72.3a47,47,0,0,1-8.6,5.7,14.93,14.93,0,0,1-6.7,1.9,6.65,6.65,0,0,1-5.3-2.4,9.7,9.7,0,0,1-2-6.3c0-6.6,5.3-12,16-16.3l6.7-2.7V72.3H139Zm54.8-39.7H178.6V16.8h-2c-0.7,5-2.4,8.8-5.1,11.6a12.79,12.79,0,0,1-9,4.3v2.8h7.3V64.1a66,66,0,0,0,.8,12.3,10.81,10.81,0,0,0,4.2,6.1,12.63,12.63,0,0,0,7.8,2.6,15.59,15.59,0,0,0,7.6-2.1,12.79,12.79,0,0,0,5.6-6.1l-2-1.2c-2.2,3.4-4.7,5-7.7,5a7.25,7.25,0,0,1-4.3-1.5,7,7,0,0,1-2.6-3.9,48,48,0,0,1-.6-9.5V35.3h15.2V32.6Zm52.6,17.2a20.64,20.64,0,0,0-5.7-13.1c-3.6-4.1-8.7-6.1-15.4-6.1a22.56,22.56,0,0,0-17.6,7.9c-4.7,5.3-7.1,11.9-7.1,19.9a26.61,26.61,0,0,0,3.7,14.4,24.85,24.85,0,0,0,9.4,9.1,23.58,23.58,0,0,0,12.1,3.2,24,24,0,0,0,12.8-3.6,17.48,17.48,0,0,0,7.8-9.8h-2.9c-3.1,6.7-8.5,10.1-16,10.1-5.5,0-9.7-2.2-12.5-6.7s-4.1-11.1-4.1-20c0-1.2.1-3,.2-5.4h35.3m-35-2.4c1.4-9.3,5.9-14,13.4-14a10.87,10.87,0,0,1,7.8,3,11.07,11.07,0,0,1,3.2,8.4,25,25,0,0,1-.2,2.5H211.4v0.1Zm60.7-3.8a40.59,40.59,0,0,0-2-12.9A77.47,77.47,0,0,1,255,34.2V37h1.3c2.6,0,4.4.4,5.5,1.1a4.72,4.72,0,0,1,1.8,3.2c0.1,1.4.2,4.8,0.2,10.2V65.8a100.28,100.28,0,0,1-.3,10.6,3.91,3.91,0,0,1-1.9,2.9c-1.1.7-2.8,1-5.3,1H255v2.8h26.9V80.3h-1.8c-2.6,0-4.5-.3-5.5-1.1a4.19,4.19,0,0,1-1.8-3.2c-0.2-1.4-.2-4.8-0.2-10.2v-9a38.52,38.52,0,0,1,1.1-10.7,17.11,17.11,0,0,1,4.7-7.5q3.75-3.6,6.3-3.6c1.5,0,2.6,1,3.4,3.1,1.1,3,2.6,4.6,4.7,4.6a3.74,3.74,0,0,0,2.9-1.3,4.47,4.47,0,0,0,1.2-3.1,7.86,7.86,0,0,0-2.3-5.2,8.29,8.29,0,0,0-6.4-2.5c-3,0-6.1,1.2-9.2,3.7a21.38,21.38,0,0,0-6.9,9.2M306,84.8c0.7-2.3,1.1-3.4,2.2-4.6,3.6,3.8,8.3,5,12.9,5A15.36,15.36,0,0,0,332,81.1a14.17,14.17,0,0,0,4.4-10.7,18.46,18.46,0,0,0-2.4-8.7c-1.6-3-5.9-6.1-12.8-9.3-4.7-2.1-7.8-4-9.4-5.6a7.52,7.52,0,0,1-2.5-5.7,7.36,7.36,0,0,1,2.3-5.3,8.14,8.14,0,0,1,6-2.3,10.88,10.88,0,0,1,8.4,4,21.8,21.8,0,0,1,4.8,9.6h2.3V31.5h-2.3c-1,2.4-1.4,3.3-2,3.9-2.9-3.6-6.9-4.8-11.3-4.8s-7.7,1.5-10.1,4.5a15.05,15.05,0,0,0-3.6,9.5,12.49,12.49,0,0,0,3.3,8.8c2.2,2.4,5.9,4.9,11,7.4,4.8,2.4,8.1,4.4,9.8,6.1a9.06,9.06,0,0,1,2.5,6.5,9.93,9.93,0,0,1-2.3,6.2c-1.6,1.9-3.9,2.8-7,2.8-7.2,0-12.2-4.8-14.9-14.4h-2.4V84.8H306Zm69.3-52.2H360.1V16.8h-2c-0.8,5-2.5,8.8-5.1,11.6a12.82,12.82,0,0,1-9.1,4.3v2.8h7.3V64.1a66,66,0,0,0,.8,12.3,10.35,10.35,0,0,0,4.2,6.1,12.63,12.63,0,0,0,7.8,2.6,15.31,15.31,0,0,0,7.6-2.1,12.79,12.79,0,0,0,5.6-6.1l-2-1.2c-2.2,3.4-4.8,5-7.7,5a7.27,7.27,0,0,1-6.9-5.4,48,48,0,0,1-.6-9.5V35.3h15.2V32.6h0.1ZM382,57.8c0,8.4,2.6,15,7.8,20a26.84,26.84,0,0,0,19,7.4,27.16,27.16,0,0,0,19.1-7.3c5.2-4.9,7.9-11.6,7.9-20.1a27.08,27.08,0,0,0-46.1-19.3A26.47,26.47,0,0,0,382,57.8m10.2,0.3c0-8.9,1.4-15.3,4.3-19s7-5.7,12.4-5.7,9.5,1.9,12.4,5.7,4.2,10.1,4.2,19-1.4,15.3-4.3,18.8-7,5.4-12.4,5.4-9.3-1.8-12.3-5.4c-2.8-3.5-4.3-9.8-4.3-18.8m65.9-27.4a79.64,79.64,0,0,1-13.9,2.8v2.8c3,0,5,.3,6.1.9a4.33,4.33,0,0,1,2,2.9,104.19,104.19,0,0,1,.3,10.7v15c0,6.2-.1,9.8-0.4,11a3.91,3.91,0,0,1-2.1,2.6c-1.1.6-3.1,0.9-5.9,0.9v2.8h25.6V80.3c-3,0-5-.3-6.1-1a3.85,3.85,0,0,1-2-2.9,104.19,104.19,0,0,1-.3-10.7V45.1a28.68,28.68,0,0,1,7.7-8.1,15.56,15.56,0,0,1,8.6-2.7,10.48,10.48,0,0,1,6.5,2,7.89,7.89,0,0,1,3.1,4.5,42,42,0,0,1,.6,8.6V65.7c0,5.6,0,9-.2,10.2a4.57,4.57,0,0,1-1.5,3c-0.9.9-2.8,1.3-5.8,1.3h-1.2V83H505V80.2c-2.9,0-4.9-.3-6-1a3.74,3.74,0,0,1-1.9-2.9,104.19,104.19,0,0,1-.3-10.7V49.8a40.6,40.6,0,0,0-1.1-10.7,11.8,11.8,0,0,0-5-6.2c-2.6-1.7-5.8-2.5-9.9-2.5A22.08,22.08,0,0,0,470.6,33a32.73,32.73,0,0,0-9.3,7.8,34.4,34.4,0,0,0-1.6-10.4h-1.6M558,49.8a20.26,20.26,0,0,0-5.8-13.1c-3.6-4.1-8.8-6.1-15.4-6.1a22.56,22.56,0,0,0-17.6,7.9c-4.7,5.3-7,11.9-7,19.9a27.48,27.48,0,0,0,3.6,14.4,25.33,25.33,0,0,0,9.3,9.1,24.52,24.52,0,0,0,24.9-.4,18.09,18.09,0,0,0,7.9-9.8h-3c-3.1,6.7-8.4,10.1-15.9,10.1-5.5,0-9.7-2.2-12.5-6.7s-4.1-11.1-4.1-20c0-1.2.1-3,.2-5.4H558m-35-2.4c1.4-9.3,5.9-14,13.4-14a10.87,10.87,0,0,1,7.8,3,11.07,11.07,0,0,1,3.2,8.4,25,25,0,0,1-.2,2.5H523v0.1Zm47.4,37.5c0.7-2.3.8-3,1.9-4.3,3.6,3.8,8.5,4.7,13.2,4.7a15.36,15.36,0,0,0,10.9-4.1,14.17,14.17,0,0,0,4.4-10.7,18.46,18.46,0,0,0-2.4-8.7c-1.6-3-5.9-6.1-12.8-9.3-4.6-2.1-7.8-4-9.4-5.6a7.52,7.52,0,0,1-2.5-5.7,7,7,0,0,1,2.3-5.3,8.14,8.14,0,0,1,6-2.3,10.88,10.88,0,0,1,8.4,4,22.91,22.91,0,0,1,4.8,9.6h2.3V31.5h-2.3c-1,2.4-1.2,3.1-1.8,3.7-2.9-3.6-7.1-4.6-11.5-4.6s-7.7,1.5-10.1,4.5a15.05,15.05,0,0,0-3.6,9.5,12.49,12.49,0,0,0,3.3,8.8c2.2,2.4,5.9,4.9,11,7.4,4.8,2.4,8.1,4.4,9.8,6.1a9.06,9.06,0,0,1,2.5,6.5,9.93,9.93,0,0,1-2.3,6.2c-1.5,1.9-3.9,2.8-7,2.8q-10.8,0-15-14.4h-2.4V84.8h2.3ZM116.8,0H94.5V2.8c5.7,0,8.5,2.7,8.5,8,0,1.8-.8,5.6-2.5,11.5L88,65.8,67.7,10.3c-0.7-2.8-.8-5.6,2.6-6.8l4.8-.7V0H47.5V2.8a12.56,12.56,0,0,1,3.8.6c2.3,0.9,3.6,3.3,4.4,5.5a13.21,13.21,0,0,1,.6,4.8L39.2,65.8,24.5,18.1C22.8,12.6,22,9.2,22,7.9a4.26,4.26,0,0,1,1.5-3.5c1.1-.8,3.4-1.4,7.1-1.6V0H0V2.8Q4.35,2.95,6.3,4.3A9.26,9.26,0,0,1,9.4,8.5c0.8,1.9,2.1,5.8,3.8,11.6L33,83.8h2.9L57.7,16.3,82.6,83.8h2.7l18-61.6c2.5-8.3,4.5-13.6,6.1-15.8s4.1-3.4,7.4-3.7V0h0Z"/></svg>