<svg xmlns="http://www.w3.org/2000/svg" xml:space="preserve" id="Layer_1" x="0" y="0" style="enable-background:new 0 0 49.1 27" version="1.1" viewBox="0 0 49.1 27"><style>.st0{fill:#505353}.st1{fill:#00bedf}</style><path d="M6.4.4v16.1H9v-5.6l3.9 5.6H16l-4.4-6.3 4.1-4.8h-3.1L9 9.6V.4z" class="st0"/><path d="M20.7 14.9c1.9 0 2.1-1.9 2.1-4s-.3-4-2.1-4c-1.9 0-2.1 1.9-2.1 4s.2 4 2.1 4m-4.9-4c0-3.6 1.7-5.8 4.9-5.8s4.9 2.2 4.9 5.8c0 3.6-1.7 5.8-4.9 5.8s-4.9-2.1-4.9-5.8M31.6 14.9c1.7 0 1.9-2.2 1.9-4 0-2-.2-4.1-1.9-4.1-1.6 0-2 2.3-2 4.1 0 2.8.4 4 2 4m-2-8.2c.4-.6 1.2-1.6 2.9-1.6 2.7 0 3.8 2.3 3.8 5.8 0 3.1-1.1 5.8-4.7 5.8-2.9 0-4.6-1.7-4.6-5V.4h2.6v6.3zM42.5 14.9c1.9 0 2.1-1.9 2.1-4s-.3-4-2.1-4c-1.9 0-2.1 1.9-2.1 4-.1 2.1.2 4 2.1 4m-4.9-4c0-3.6 1.7-5.8 4.9-5.8s4.9 2.2 4.9 5.8c0 3.6-1.7 5.8-4.9 5.8s-4.9-2.1-4.9-5.8" class="st0"/><path d="M37.7 20.3c-3 0-5.1.1-6.2.2-1.1.2-2.1.5-3 1-1.1.6-1.8 1.5-2.1 2.5h-.3c-.2-.9-.8-1.7-1.8-2.3-.8-.5-1.7-.8-2.8-1.1-1.1-.2-2.5-.3-4.2-.3H5.1L.4 23c1.2.1 2.5.2 4 .2h4.2l6.3-.1 4.6-.1c2 0 3.5.3 4.5.8s1.6 1.4 1.8 2.7h.8c.2-.9.6-1.6 1.1-2.2.5-.5 1.1-.8 1.9-1.1.8-.2 1.9-.3 3.3-.3h6.8v-2.8l-2 .2zM41.5 20.3h2.8v2.8h-2.8zM45.9 20.3h2.8v2.8h-2.8z" class="st1"/></svg>