<svg xmlns="http://www.w3.org/2000/svg" fill="none" viewBox="0 0 745 110"><path fill="#2B74E7" fill-rule="evenodd" d="M0 109.815V.651h107.924L0 109.815ZM21.583 109.816l43.173-43.665 43.169 43.665H21.583Z" clip-rule="evenodd"/><path fill="#202832" fill-rule="evenodd" d="m255.11 102.551-28.729-38.399-7.433 8.915v29.484h-20.154V6.629h20.154v42.856L252.549 6.63h24.89l-37.688 45.01 40.245 50.912H255.11ZM344.065 27.05l-14.788 41.5h29.575l-14.787-41.5Zm26.162 75.501-5.825-16.998h-40.677l-5.974 16.998h-23.035l36.688-95.922h25.318l36.549 95.922h-23.044ZM407.677 94.926l8.814-15.673c3.691 3.593 8.531 6.899 15.072 6.899 8.953 0 14.562-6.038 14.562-15.386l-.036-64.14h20.407v64.427c0 22.721-13.897 33.221-33.376 33.221-9.521 0-18.619-2.591-25.443-9.348ZM538.534 27.05 523.741 67.34h29.581L538.534 27.05Zm26.165 75.501-5.829-15.787h-40.682l-5.969 15.787h-23.04l36.689-95.922h25.322l36.553 95.922h-23.044ZM669.538 73.79c0-6.038-4.263-11.307-12.231-11.307h-26.348v21.852h26.348c7.68 0 12.231-3.642 12.231-10.545Zm-1.846-39.12c0-6.042-4.267-9.83-11.092-9.83h-25.641v20.64H656.6c6.825 0 11.092-4.772 11.092-10.81Zm-57.144 67.879V6.627h50.455c18.06 0 27.307 11.652 27.307 24.447 0 12.08-7.397 20.135-16.355 22.006 10.093 1.58 18.2 11.507 18.2 23.587 0 14.38-9.525 25.882-27.586 25.882h-52.021ZM724.846 102.551H745V6.629h-20.154v95.922Z" clip-rule="evenodd"/></svg>