<?xml version="1.0" encoding="utf-8"?>
<!-- Generator: Adobe Illustrator 23.0.2, SVG Export Plug-In . SVG Version: 6.00 Build 0)  -->
<svg version="1.1" id="Layer_1" xmlns="http://www.w3.org/2000/svg" xmlns:xlink="http://www.w3.org/1999/xlink" x="0px" y="0px"
	 viewBox="0 0 600.7 80.8" style="enable-background:new 0 0 600.7 80.8;" xml:space="preserve">
<style type="text/css">
	.st0{fill:#1F325B;}
</style>
<g>
	<path class="st0" d="M134.3,29.8c-0.4-1.1-0.7-1.2-1.2,0c-1,2.8-6.4,18-7.4,21.2c-0.3,0.8-0.2,0.8,0.7,0.8h14.9
		c0.7,0,0.9-0.1,0.6-0.9C141.7,50.5,135,31.9,134.3,29.8 M132.8,16.4c0.6-1.7,0.7-1.8,1.6-1.9c0.7-0.1,1.7-0.3,2.4-0.5
		c1-0.2,1-0.2,1.7,1.4c1.8,4.8,4.1,10.8,5.9,15.2c3.7,9.4,9.9,26.1,13.6,35.5c4.1,10.6,5.3,11.6,8.9,12c0.6,0.1,0.5,1.5,0,1.5H147
		c-0.6,0-0.6-1.4,0-1.5c3.7-0.4,4.6-1.4,0.5-12c-0.3-0.8-2.5-6.8-3.2-8.9c-0.2-0.7-0.4-0.8-1.2-0.8h-18.6c-0.8,0-0.9,0.2-1.2,1
		c-0.5,1.4-2.1,5.9-3.1,8.7c-3.8,10.7-3.2,11.6,0.5,12c0.6,0.1,0.5,1.5,0,1.5h-15.3c-0.6,0-0.6-1.4,0-1.5c3.7-0.4,4.8-1.4,8.8-12
		C120.7,48.9,126.7,33.8,132.8,16.4"/>
	<path class="st0" d="M362.4,64.8c-5.2-15.6-11.8-37.2-12-37.7c-0.9-2.5-2.6-7.4-4.1-11.7c-0.5-1.5-0.6-1.6-1.7-1.4
		c-0.7,0.1-1.5,0.3-2.2,0.5c-1,0.2-1.1,0.3-1.6,1.9c-4.2,12.6-12.1,37-15.7,48.3c-5.2-15.6-11.7-36.1-11.9-36.6
		c-3.7-10.6-2.8-11.6,1-12c0.5-0.1,0.4-1.5,0-1.5h-19.7c-0.5,0-0.5,1.4,0,1.5c3.7,0.4,4.8,1.4,8.5,12c2.9,8.3,17,49.9,17.4,50.9
		c0.5,1.5,0.6,1.6,1.7,1.4c0.6-0.1,1.5-0.3,2.1-0.5c0.9-0.2,1-0.3,1.5-1.9c5.3-16,10.2-31.1,15.8-46.7c4.6,13.3,15.7,46.7,16,47.7
		c0.5,1.5,0.6,1.6,1.7,1.4c0.7-0.1,1.5-0.3,2.1-0.5c0.9-0.2,1-0.3,1.5-1.9c5.7-17.4,11.1-32.7,17.3-49.9c3.8-10.6,4.9-11.6,8.6-12
		c0.5-0.1,0.4-1.5,0-1.5h-15.1c-0.5,0-0.5,1.4,0,1.5c3.7,0.4,4.4,1.3,0.8,12C373.6,30.1,366.1,53.4,362.4,64.8"/>
	<path class="st0" d="M495.8,79.6c-0.5,0-0.5-1.4,0-1.5c4.5-0.5,5.2-1.3,5.2-12V28c0-10.7-0.7-11.5-5.2-12c-0.5-0.1-0.4-1.5,0-1.5
		h19.5c0.5,0,0.5,1.4,0,1.5c-4.5,0.5-5.2,1.3-5.2,12v35c0,10.7,0.7,11.5,5.2,12c2,0.2,3.8,0.3,5.3,0.3c5.6,0,10-2.7,11.3-6.9
		c0.2-0.5,1.5-0.3,1.4,0.2c-0.5,3.9-0.8,5.9-1.1,7.8c-0.3,2.4-1.4,3.2-3.7,3.2L495.8,79.6"/>
	<path class="st0" d="M448.9,79.6c-0.5,0-0.5-1.4,0-1.5c4.5-0.5,5.2-1.3,5.2-12V28c0-10.7-0.7-11.5-5.2-12c-0.5-0.1-0.4-1.5,0-1.5
		h19.5c0.5,0,0.5,1.4,0,1.5c-4.5,0.5-5.2,1.3-5.2,12v35c0,10.7,0.7,11.5,5.2,12c2,0.2,3.8,0.3,5.3,0.3c5.6,0,10-2.7,11.3-6.9
		c0.2-0.5,1.5-0.3,1.4,0.2c-0.5,3.9-0.8,5.9-1.1,7.8c-0.3,2.4-1.4,3.2-3.7,3.2L448.9,79.6"/>
	<path class="st0" d="M63.3,79.6c-0.5,0-0.5-1.4,0-1.5c4.5-0.5,5.2-1.3,5.2-12V28c0-10.7-0.7-11.5-5.2-12c-0.5-0.1-0.4-1.5,0-1.5
		h19.5c0.5,0,0.5,1.4,0,1.5c-4.5,0.5-5.2,1.3-5.2,12v35c0,10.7,0.7,11.5,5.2,12c2,0.2,3.8,0.3,5.3,0.3c5.6,0,10-2.7,11.3-6.9
		c0.2-0.5,1.5-0.3,1.4,0.2c-0.5,3.9-0.8,5.9-1.1,7.8c-0.3,2.4-1.4,3.2-3.7,3.2L63.3,79.6"/>
	<path class="st0" d="M39.2,30.5c0,7.5-5.6,12.2-14.3,11.5c-1.4-0.1-3.4-0.3-4-0.4c-1.1-0.3-1.3-0.8-1.3-2.3V26.6
		c0-3.8,0.1-6,0.2-6.8c0.2-1.5,0.9-1.9,2.7-2.2c0.8-0.1,2.6-0.2,3.4-0.2C34.2,17.4,39.2,21.5,39.2,30.5 M23.2,46.4
		c6.6,0,13.3,1.8,16.4,4.8c7.2,6.8,6.5,17,2.1,21.2c-1.5,1.4-3.5,2.5-6,3c-3,0.6-8.1,0.4-10.9,0.1c-4.5-0.5-5.2-1.2-5.2-11.9V49.4
		C19.6,46.9,20.6,46.4,23.2,46.4 M30.6,79.6c7.6,0,11.8-0.7,15-2.5c5.5-3,8.9-8.5,8.9-15.1c0-11.3-10.4-17.2-15.9-19
		c6.4-4.3,9.2-9.5,9.2-16.1S43.4,16,37.9,14.4c-2.2-0.7-4.2-1-9-1H5.3c-0.5,0-0.5,1.4,0,1.5c4.5,0.5,5.2,1.3,5.2,12v39.2
		c0,10.7-0.7,11.5-5.2,12c-0.5,0.1-0.4,1.5,0,1.5H30.6z"/>
	<path class="st0" d="M295.6,78.1c-3.2-0.3-7.9-2-16.2-10.4c-3.1-3.2-15.2-16.1-21.9-23c5.1-5.6,9.9-10.8,15.3-16.7
		c9.5-10.4,10.8-11.3,14.5-12c0.6-0.1,0.4-1.5-0.1-1.5h-16.3c-0.6,0-0.6,1.4,0,1.5c2.6,0.3,3.1,1.2,1.8,3.6c-1,1.8-3,4.4-6.6,8.5
		c-1.5,1.6-8.6,9.5-14.6,16V28c0-10.7,0.7-11.5,5.2-12c0.5-0.1,0.4-1.5,0-1.5h-19.5c-0.5,0-0.5,1.4,0,1.5c4.5,0.5,5.2,1.3,5.2,12
		v38.1c0,10.7-0.7,11.5-5.2,12c-0.5,0.1-0.4,1.5,0,1.5h19.5c0.5,0,0.5-1.4,0-1.5c-4.5-0.5-5.2-1.3-5.2-12V49.9
		c4.5,4.7,10.8,12.3,18.2,20.6c7.3,8.1,11.5,9.2,24.1,9.2h1.9C296.1,79.7,296.2,78.2,295.6,78.1"/>
	<path class="st0" d="M435.8,68.7c-1,4.9-4.7,6.6-11.2,6.7c-1.5,0-7,0-9-0.3c-4.5-0.5-5.2-1.3-5.2-12V48c2.3-0.1,4.7-0.2,7.5-0.1
		c8.6,0,9.9,0.7,9.7,3.9c0,0.6,1.4,0.7,1.5,0.2c0.5-3.9,0.9-6.2,1.1-8.2c0.1-0.7-0.7-1.1-1.3-0.8c-0.5,0.3-1.2,0.4-2.8,0.5
		c-2.3,0.2-9.8,0.2-15.7,0.1V28c0-3.4,0.1-5.8,0.3-7.5c0.1-1.1,0.3-1.3,1.5-1.4c3.3-0.3,6.5-0.4,10.4-0.3c7.6,0,9.9,1.3,9.6,5
		c0,0.5,1.3,0.8,1.4,0.3c0.5-3.9,0.8-5.5,1-7.5c0.2-1.5,0.4-2.1-1.7-2.1H396c-0.5,0-0.5,1.4,0,1.5c4.5,0.5,5.2,1.4,5.2,12v38.1
		c0,10.7-0.7,11.5-5.2,12c-0.5,0.1-0.4,1.5,0,1.5h36.4c2.3,0,3.4-0.8,3.7-3.2c0.3-2,0.5-3.8,1.1-7.7C437.3,68.1,436,68,435.8,68.7"
		/>
	<path class="st0" d="M225.3,75.7c-0.2,1.3-0.5,1.6-2.4,2.5c-4.2,1.9-12.9,2.4-17.4,2.4c-21,0-36.9-11.9-36.9-33.5
		c0-19.8,14.3-33.4,34-33.4c5.4,0,10.9,0.7,16.2,1.8c3.2,0.7,4.9,1.5,6.4,1.3c1-0.1,1.6,0.4,1.5,1c-0.2,1.5-1.4,8.3-1.7,10.2
		c-0.1,0.5-1.5,0.4-1.5-0.1c-0.1-2.2-0.3-3-2.3-4.6c-4.7-3.9-12.6-5-18.2-5c-7.4,0-13.4,2.4-17.7,6.6C171.6,38.3,179,75.6,207,75.6
		c3.6,0,9.9-0.3,13.9-2.4c1.6-0.8,3-3,4.2-7c0.1-0.4,1.5-0.1,1.5,0.3C226.4,68.7,225.7,73.5,225.3,75.7"/>
	<path class="st0" d="M542.2,26.4c-0.9,0.6-1.9-1.4-1.1-1.8c3.9-2.1,6.5-5.9,6.5-10.5c0-3.4-1.7-4.2-4.5-4.2c-2.9,0-5.1-1.9-5.1-4.8
		c0-3.2,2.6-5.1,6-5.1c5.5,0,8.6,5.3,8.6,10C552.5,16.9,549.4,22.6,542.2,26.4z"/>
	<path class="st0" d="M589.7,77.4C586,80,581.8,81,577.1,81c-4.3,0-8.9-1-12.3-2.2c-1.3-0.6-2-1.2-2-2.4c0-0.3,0.1-0.6,0.1-0.8
		l1.5-9.5c0-0.3,0.3-0.3,0.7-0.3s0.9,0.2,0.9,0.5v0.9c0,6.2,4.6,9.9,12.3,9.9c7.3,0,11.2-5.8,11.2-11c0-15.3-26-17.3-26-36.1
		c0-8.7,5.2-16.6,18.1-16.6c2.5,0,5,0.3,7.1,0.8c2,0.4,2.7,0.7,3.6,0.7c0.2,0,0.5,0,0.8-0.1h0.3c0.7,0,1.1,0.4,1.1,0.9
		c0,0.1,0,0,0,0.1l-1.5,9.3c0,0.3-0.4,0.4-0.8,0.4c-0.3,0-0.7-0.2-0.7-0.4c-0.1-2.9-0.7-4.4-2.2-5.5c-2.1-1.6-4.8-2.3-7.6-2.3
		c-5.2,0-10.6,2.9-10.6,9.3c0,12.9,25.9,15.8,25.9,35.8C597.2,68.3,594.2,74.1,589.7,77.4z"/>
</g>
</svg>
