<svg xmlns="http://www.w3.org/2000/svg" viewBox="0 0 602.28 181.5"><defs><style>.a{fill:#f90;}.b{fill:#fff;}</style></defs><title>logo-amazon-white</title><path class="a" d="M374,142.18c-35,25.8-85.73,39.56-129.41,39.56-61.24,0-116.38-22.65-158.09-60.32-3.28-3-.34-7,3.59-4.69,45,26.19,100.67,41.95,158.17,41.95A314.51,314.51,0,0,0,368.92,134c5.93-2.52,10.88,3.88,5.09,8.18" transform="translate(-0.36 -0.25)"/><path class="a" d="M388.56,125.54c-4.46-5.72-29.57-2.7-40.85-1.36-3.43.42-4-2.57-.87-4.72,20-14.08,52.83-10,56.65-5.3s-1,37.65-19.79,53.35c-2.88,2.41-5.64,1.13-4.35-2.07,4.22-10.54,13.69-34.16,9.2-39.9" transform="translate(-0.36 -0.25)"/><path class="b" d="M348.5,20.07V6.38A3.38,3.38,0,0,1,352,2.92h61.27a3.41,3.41,0,0,1,3.54,3.46V18.1c0,2-1.68,4.54-4.61,8.6L380.4,72c11.8-.29,24.25,1.47,34.95,7.5a6.23,6.23,0,0,1,3.25,5.32v14.6c0,2-2.2,4.33-4.51,3.12-18.85-9.88-43.89-11-64.73.1-2.12,1.15-4.35-1.15-4.35-3.15V85.66c0-2.23,0-6,2.25-9.41L384,23.5H352a3.39,3.39,0,0,1-3.54-3.43" transform="translate(-0.36 -0.25)"/><path class="b" d="M125,105.45H106.36a3.52,3.52,0,0,1-3.33-3.17V6.62a3.5,3.5,0,0,1,3.59-3.43H124a3.51,3.51,0,0,1,3.38,3.2V18.89h0.34C132.26,6.8,140.78,1.16,152.26,1.16c11.67,0,19,5.64,24.2,17.72C181,6.8,191.22,1.16,202.21,1.16c7.81,0,16.36,3.22,21.58,10.46,5.9,8,4.69,19.74,4.69,30l0,60.38a3.52,3.52,0,0,1-3.59,3.46H206.24a3.54,3.54,0,0,1-3.36-3.46V51.29c0-4,.37-14.1-0.52-17.93-1.39-6.42-5.56-8.23-11-8.23A12.38,12.38,0,0,0,180.26,33c-1.91,4.82-1.73,12.9-1.73,18.33V102a3.52,3.52,0,0,1-3.59,3.46H156.33A3.52,3.52,0,0,1,153,102l0-50.7c0-10.67,1.76-26.37-11.48-26.37-13.4,0-12.87,15.31-12.87,26.37V102a3.52,3.52,0,0,1-3.59,3.46" transform="translate(-0.36 -0.25)"/><path class="b" d="M469.51,1.16c27.66,0,42.63,23.75,42.63,54,0,29.18-16.54,52.33-42.63,52.33-27.16,0-41.95-23.75-41.95-53.35,0-29.78,15-52.93,41.95-52.93m0.16,19.53c-13.74,0-14.6,18.72-14.6,30.39s-0.18,36.65,14.45,36.65c14.45,0,15.13-20.13,15.13-32.4,0-8.07-.34-17.72-2.78-25.38-2.1-6.66-6.27-9.25-12.19-9.25" transform="translate(-0.36 -0.25)"/><path class="b" d="M548,105.45H529.45a3.54,3.54,0,0,1-3.36-3.46l0-95.69a3.53,3.53,0,0,1,3.59-3.12h17.28a3.57,3.57,0,0,1,3.33,2.67V20.49h0.34C555.82,7.4,563.13,1.16,576,1.16c8.36,0,16.52,3,21.76,11.27,4.88,7.66,4.88,20.53,4.88,29.78v60.22a3.58,3.58,0,0,1-3.59,3H580.36a3.53,3.53,0,0,1-3.3-3v-52c0-10.46,1.21-25.77-11.67-25.77-4.54,0-8.7,3-10.78,7.66-2.62,5.85-3,11.67-3,18.12V102a3.58,3.58,0,0,1-3.64,3.46" transform="translate(-0.36 -0.25)"/><path class="b" d="M299.66,59.76v-4c-13.48,0-27.71,2.88-27.71,18.77,0,8,4.17,13.5,11.33,13.5,5.24,0,9.94-3.22,12.9-8.47,3.67-6.45,3.49-12.51,3.49-19.77m18.8,45.43a3.89,3.89,0,0,1-4.4.45c-6.19-5.14-7.29-7.52-10.7-12.43-10.22,10.43-17.46,13.55-30.73,13.55-15.68,0-27.89-9.67-27.89-29,0-15.13,8.21-25.43,19.87-30.46,10.12-4.46,24.25-5.24,35.05-6.48V38.37c0-4.43.34-9.67-2.25-13.5-2.28-3.43-6.63-4.85-10.46-4.85-7.1,0-13.45,3.64-15,11.19-0.31,1.68-1.55,3.33-3.22,3.41l-18.09-1.94a3.3,3.3,0,0,1-2.78-3.91C252,6.85,271.81.25,289.54,0.25c9.07,0,20.92,2.41,28.08,9.28,9.07,8.47,8.21,19.77,8.21,32.06v29c0,8.73,3.62,12.56,7,17.28,1.21,1.68,1.47,3.7-.05,5-3.8,3.17-10.57,9.07-14.29,12.37l-0.05-.05" transform="translate(-0.36 -0.25)"/><path class="b" d="M55.29,59.76v-4c-13.48,0-27.71,2.88-27.71,18.77,0,8,4.17,13.5,11.33,13.5,5.24,0,9.94-3.22,12.9-8.47,3.67-6.45,3.49-12.51,3.49-19.77m18.8,45.43a3.89,3.89,0,0,1-4.4.45c-6.19-5.14-7.29-7.52-10.7-12.43-10.22,10.43-17.46,13.55-30.73,13.55-15.68,0-27.89-9.67-27.89-29,0-15.13,8.21-25.43,19.87-30.46C30.36,42.8,44.49,42,55.29,40.78V38.37c0-4.43.34-9.67-2.25-13.5C50.75,21.43,46.4,20,42.57,20c-7.1,0-13.45,3.64-15,11.19-0.31,1.68-1.55,3.33-3.22,3.41L6.26,32.68a3.3,3.3,0,0,1-2.78-3.91C7.65,6.85,27.45.25,45.17,0.25c9.07,0,20.92,2.41,28.08,9.28,9.07,8.47,8.21,19.77,8.21,32.06v29c0,8.73,3.62,12.56,7,17.28,1.21,1.68,1.47,3.7-.05,5-3.8,3.17-10.57,9.07-14.29,12.37l-0.05-.05" transform="translate(-0.36 -0.25)"/></svg>