<svg xmlns="http://www.w3.org/2000/svg" viewBox="0 0 400 206"><path fill="#fff" class="a" d="M14.7,5C13.27,3.66,11,3.22,8.31,3.22H0v31H8.31c2.76,0,5-.53,6.42-1.89A7.1,7.1,0,0,0,17,26.93V10.33A6.88,6.88,0,0,0,14.7,5ZM5,8.22H8.31a3,3,0,0,1,2.08.52A1.9,1.9,0,0,1,11,10.33v16.6a2.25,2.25,0,0,1-.6,1.69,3,3,0,0,1-2.09.6H5v-21Z"/><path fill="#fff" class="a" d="M39.17,21C40,19.82,40,18.33,40,16.61V10.33C40,8,39.64,6.4,38.19,5S35,3.22,32.3,3.22H25v31h5v-10h1.49l5.25,10h6.42l-6-11.27A5.31,5.31,0,0,0,39.17,21ZM30,8.22h2.3a3,3,0,0,1,2.08.52A1.9,1.9,0,0,1,35,10.33v6.28a2.66,2.66,0,0,1-.6,1.85,3,3,0,0,1-2.09.75H30v-11Z"/><rect fill="#fff" class="a" x="47" y="27.22" width="7" height="7"/><path fill="#fff" class="a" d="M65.41,95.73V2.16h9.64l31.66,72v-72h10.07V95.73h-9.64l-31.66-72v72H65.41Z"/><path fill="#fff" class="a" d="M177.23,95.73l-3.74-9.21a23.57,23.57,0,0,1-7.77,8.2,19.71,19.71,0,0,1-10.94,3.17q-7.63,0-12.23-2.66A15,15,0,0,1,136,88a26,26,0,0,1-1.94-10.22V63.34A25.9,25.9,0,0,1,136,53a15.06,15.06,0,0,1,6.55-7.2q4.6-2.66,12.23-2.66h16.69V19.58a10.28,10.28,0,0,0-3.24-8q-3.24-2.95-9.86-3t-9.64,3a10.39,10.39,0,0,0-3.17,8v8.49H135.5V20.15q0-9.5,5.61-14.83T158.38,0Q170,0,175.79,5.33t5.76,14.83V95.73h-4.32Zm-5.76-43.9H154.78q-6.48,0-8.56,3.31a15.11,15.11,0,0,0-2.09,8.2v14.4a15.1,15.1,0,0,0,2.09,8.2q2.08,3.31,8.56,3.31a14.73,14.73,0,0,0,8-2.3,22.67,22.67,0,0,0,6.12-5.54,11.31,11.31,0,0,0,2.59-6.12V51.82Z"/><path fill="#fff" class="a" d="M247,77.73q0,9.36-6,14.75t-18.35,5.4q-12.38,0-18.49-5.4T198.1,77.73V20.15q0-9.36,6-14.75T222.42,0q12.38,0,18.49,5.4T247,20.15V77.73ZM237,20.15a10.49,10.49,0,0,0-3.6-8.49q-3.6-3-10.94-3t-10.72,3q-3.53,3-3.53,8.49V77.73a10.53,10.53,0,0,0,3.6,8.42q3.6,3.1,10.94,3.09t10.72-3.09A10.63,10.63,0,0,0,237,77.73V20.15Z"/><path fill="#fff" class="a" d="M265,95.73V2.16h4.32l3.6,9.21a23.57,23.57,0,0,1,7.77-8.2A19.46,19.46,0,0,1,291.49,0q7.77,0,12.23,2.88a15.84,15.84,0,0,1,6.33,7.63A25.16,25.16,0,0,1,317.76,3a19.16,19.16,0,0,1,10.43-3q7.63,0,12,2.66a15.35,15.35,0,0,1,6.33,7.2,25.92,25.92,0,0,1,1.94,10.29V95.73H338.41V20.15a15.54,15.54,0,0,0-2-8.2q-2-3.31-8.35-3.31A14.52,14.52,0,0,0,320.13,11a20.42,20.42,0,0,0-6,5.76,11.35,11.35,0,0,0-2.3,6.26V95.73H301.71V20.15a15.54,15.54,0,0,0-2-8.2q-2-3.31-8.35-3.31a14.86,14.86,0,0,0-7.91,2.3,20.39,20.39,0,0,0-6,5.54,10.7,10.7,0,0,0-2.3,6.12V95.73H265Z"/><path fill="#fff" class="a" d="M367.19,95.73V2.16h10.07V95.73H367.19Z"/><path fill="#fff" class="a" d="M65.41,203.84V110.27H105v8.64H75.49V152H99.23v8.64H75.49v43.18H65.41Zm59.72,0V110.27h10.07v93.57H125.14Z"/><path fill="#fff" class="a" d="M193.78,166.27a26,26,0,0,1,5.83,8.92,32.53,32.53,0,0,1,1.51,10.65q0,9.36-5.76,14.75T176.8,206q-12.67,0-18.49-5.4t-5.83-14.75V173.61h10.07v12.81a9.92,9.92,0,0,0,3.53,7.92q3.52,3,10.72,3t10.72-3a9.93,9.93,0,0,0,3.53-7.92,25.7,25.7,0,0,0-.94-7.49,16.21,16.21,0,0,0-4.53-6.48L160.25,147.7a27.24,27.24,0,0,1-6.12-8.93,29.44,29.44,0,0,1-1.66-10.51q0-9.36,5.9-14.75t18.13-5.4q12.09,0,17.63,5.4t5.54,14.75V140.5H189.61V127.69a10.17,10.17,0,0,0-3.31-8q-3.31-2.95-10.22-3t-10.22,3a10.16,10.16,0,0,0-3.31,8,25.6,25.6,0,0,0,.94,7.49,15.22,15.22,0,0,0,4.53,6.33Z"/><path fill="#fff" class="a" d="M218.39,203.84V110.27h10.07V152h28.35V110.27h10.07v93.57H256.81V160.66H228.46v43.18H218.39Z"/><path fill="#fff" class="a" d="M322.29,177.93h10.07v7.92q0,9.36-5.76,14.75T308.76,206q-12.09,0-18-5.4t-5.9-14.75V128.27q0-9.36,5.76-14.75t17.84-5.4q12.09,0,18,5.4t5.9,14.75v31.67H294.95v25.91a10.85,10.85,0,0,0,3.38,8.42q3.38,3.1,10.43,3.09T319,194.27a11,11,0,0,0,3.31-8.42v-7.92ZM294.95,151.3h27.34v-23q0-5.47-3.38-8.49t-10.43-3q-6.91,0-10.22,3t-3.31,8.49v23Z"/><path fill="#fff" class="a" d="M350.35,203.84V110.27h21.73q11.51,0,17.2,5.4T395,130.43v20.15a21.19,21.19,0,0,1-3.17,11.88,17.07,17.07,0,0,1-9.5,6.84L400,203.84H388.92l-16.84-33.11H360.42v33.11H350.35Zm34.54-73.41a11.1,11.1,0,0,0-3.24-8.42q-3.24-3.09-9.57-3.1H360.42V162.1h11.66q6.48,0,9.64-3.1a11.24,11.24,0,0,0,3.17-8.42V130.43Z"/></svg>